<svg xmlns="http://www.w3.org/2000/svg" width="67.278" height="64.5" viewBox="0 0 67.278 64.5">
  <g id="Icon" transform="translate(-319.722 -2260)">
    <rect id="Rectangle_25" data-name="Rectangle 25" width="52" height="54" rx="5" transform="translate(335 2260)" fill="#93a5ff" opacity="0.15"/>
    <path id="DB_icon" d="M50.863,8.256C49.74,4.094,41.379,0,26.752,0S3.764,4.094,2.642,8.256a.95.95,0,0,0-.142.475V44.625a.912.912,0,0,0,.114.438c1.146,4.749,11.4,8.293,24.139,8.293,12.714,0,22.948-3.53,24.131-8.261a.958.958,0,0,0,.121-.47V8.731A.95.95,0,0,0,50.863,8.256ZM48.988,32.969a2.386,2.386,0,0,1-.113.352,2.787,2.787,0,0,1-.139.288,3.289,3.289,0,0,1-.224.358c-.064.09-.137.179-.212.269-.108.127-.222.254-.352.38-.079.077-.165.152-.252.229-.159.139-.325.276-.51.413-.08.059-.165.116-.249.175-.219.151-.448.3-.7.449-.066.04-.137.078-.206.116-.289.163-.591.325-.917.482-.042.02-.085.04-.128.059-.364.172-.744.341-1.151.5l-.035.014A37.607,37.607,0,0,1,35.5,39.162l-.049.007q-.957.141-1.965.251c-.11.012-.225.019-.336.031-.587.061-1.181.117-1.792.162-.279.02-.572.03-.857.048-.46.027-.915.057-1.386.074-.77.024-1.556.04-2.358.04s-1.588-.016-2.359-.043c-.471-.016-.926-.048-1.386-.074-.284-.016-.577-.027-.857-.048-.611-.045-1.2-.1-1.792-.162-.111-.012-.226-.019-.336-.031q-1.008-.111-1.965-.251l-.049-.007A37.607,37.607,0,0,1,9.7,37.054l-.035-.014c-.406-.163-.788-.332-1.151-.5-.042-.02-.086-.04-.128-.059-.326-.157-.628-.318-.917-.482-.068-.039-.14-.077-.206-.116-.251-.147-.48-.3-.7-.449-.083-.058-.17-.115-.249-.175-.185-.137-.351-.275-.51-.413-.086-.076-.174-.151-.252-.229a5.063,5.063,0,0,1-.352-.38c-.076-.089-.148-.178-.212-.269a3.616,3.616,0,0,1-.224-.358,3,3,0,0,1-.139-.288,2.351,2.351,0,0,1-.113-.352A2.1,2.1,0,0,1,4.44,32.5a2.071,2.071,0,0,1,.03-.328.967.967,0,0,0-.03-.432v-7.2c.027.025.061.049.089.075.211.186.427.372.669.55,3.654,2.764,10.962,4.912,21.554,4.912,10.547,0,17.836-2.13,21.506-4.878a9.876,9.876,0,0,0,.805-.658h0v7.2a.967.967,0,0,0-.03.432,1.962,1.962,0,0,1,.03.328A2.1,2.1,0,0,1,48.988,32.969ZM49.065,12.9v7.2a.967.967,0,0,0-.03.432,1.962,1.962,0,0,1,.03.328,2.1,2.1,0,0,1-.077.47,2.386,2.386,0,0,1-.113.352,2.787,2.787,0,0,1-.139.288,3.289,3.289,0,0,1-.224.358c-.064.09-.137.179-.212.269-.108.127-.222.254-.352.38-.079.077-.165.152-.252.229-.159.139-.325.276-.51.413-.08.059-.165.116-.249.175-.219.151-.448.3-.7.449-.066.04-.137.078-.206.116-.289.163-.591.325-.917.482-.042.02-.085.04-.128.059-.364.172-.744.341-1.151.5l-.035.014A37.607,37.607,0,0,1,35.5,27.521l-.049.007q-.957.141-1.965.251c-.11.012-.225.019-.336.031-.587.061-1.181.117-1.792.162-.279.02-.572.03-.857.048-.46.027-.915.057-1.386.074-.77.024-1.556.04-2.358.04s-1.588-.016-2.359-.043c-.471-.016-.926-.048-1.386-.074-.284-.016-.577-.027-.857-.048-.611-.045-1.2-.1-1.792-.162-.111-.012-.226-.019-.336-.031q-1.008-.111-1.965-.251l-.049-.007A37.607,37.607,0,0,1,9.7,25.413L9.668,25.4c-.406-.163-.788-.332-1.151-.5-.042-.02-.086-.04-.128-.059-.326-.157-.628-.318-.917-.482-.068-.039-.14-.077-.206-.116-.251-.147-.48-.3-.7-.449-.083-.058-.17-.115-.249-.175-.185-.137-.351-.275-.51-.413-.086-.076-.174-.151-.252-.229a5.062,5.062,0,0,1-.352-.38c-.076-.089-.148-.178-.212-.269a3.617,3.617,0,0,1-.224-.358,3,3,0,0,1-.139-.288,2.351,2.351,0,0,1-.113-.352,2.1,2.1,0,0,1-.076-.468,2.071,2.071,0,0,1,.03-.328.967.967,0,0,0-.03-.432V12.9c.116.106.249.21.375.314.07.058.135.116.209.175.291.229.605.455.946.675.071.046.15.09.224.136q.428.266.9.522c.117.063.235.125.356.187q.531.271,1.117.526c.064.028.122.057.187.084.455.193.938.377,1.441.556.139.049.284.1.427.145q.6.2,1.241.389c.154.045.306.091.464.134.568.157,1.153.307,1.768.444.084.019.176.035.261.053.542.118,1.1.228,1.683.331.2.035.395.068.595.1q.825.135,1.7.248c.149.019.292.042.443.06.722.087,1.469.162,2.236.226.189.016.386.027.578.041q.921.067,1.884.111c.234.011.467.021.705.03.836.028,1.688.049,2.571.049s1.735-.02,2.571-.049c.238-.009.47-.019.705-.03q.963-.044,1.884-.111c.192-.015.388-.025.578-.041.767-.063,1.514-.139,2.236-.226.151-.018.294-.041.443-.06q.872-.113,1.7-.248c.2-.033.4-.066.595-.1.578-.1,1.141-.212,1.683-.331.085-.018.177-.035.261-.053.615-.138,1.2-.288,1.768-.444.158-.044.309-.089.464-.134q.642-.188,1.241-.389c.143-.049.288-.1.427-.145.5-.178.987-.363,1.441-.556.065-.027.123-.056.187-.084q.586-.256,1.117-.526c.121-.062.24-.124.356-.187q.476-.255.9-.522c.074-.046.153-.09.224-.136.341-.22.655-.445.946-.675.073-.058.138-.116.209-.175C48.815,13.105,48.948,13,49.065,12.9ZM26.752,1.94c13.15,0,22.312,3.834,22.312,7.276S39.9,16.492,26.752,16.492,4.44,12.658,4.44,9.216,13.6,1.94,26.752,1.94Zm22.312,42.4a.989.989,0,0,0-.031.131c-.55,3.356-9.635,6.948-22.281,6.948S5.021,47.823,4.471,44.467a1.057,1.057,0,0,0-.031-.127V36.178c.027.025.061.049.089.075.211.186.427.372.669.55,3.654,2.764,10.962,4.912,21.554,4.912,10.547,0,17.836-2.13,21.506-4.878a9.876,9.876,0,0,0,.805-.658h0Z" transform="translate(317.722 2270.645)" fill="#93a5ff" stroke="#93a5ff" stroke-width="1"/>
  </g>
</svg>
