<svg xmlns="http://www.w3.org/2000/svg" width="265.026" height="99.242" viewBox="0 0 265.026 99.242">
  <g id="Clouds" transform="translate(-622.766 -1538.081)">
    <path id="Union_25" data-name="Union 25" d="M60.322,49.605a8.982,8.982,0,0,1-2.541-17.6c0-.065,0-.13,0-.194a12.708,12.708,0,0,1,25.414-.17H83.7a8.98,8.98,0,0,1,0,17.96Z" transform="matrix(1, 0.017, -0.017, 1, 572.298, 1586.107)" fill="#fff"/>
    <path id="Union_27" data-name="Union 27" d="M6.7,22.759a6.7,6.7,0,0,1-6.7-6.7q0-.3.026-.595Q0,15.2,0,14.92A5.565,5.565,0,0,1,4.805,9.408,9.483,9.483,0,0,1,23.77,9.356h.38a6.7,6.7,0,1,1,0,13.4Z" transform="matrix(1, 0.017, -0.017, 1, 856.946, 1606.133)" fill="#fff" opacity="0.5"/>
    <path id="Union_29" data-name="Union 29" d="M7.2,24.448a7.2,7.2,0,0,1-7.2-7.2q0-.323.028-.639Q0,16.323,0,16.027a5.977,5.977,0,0,1,5.162-5.921,10.187,10.187,0,0,1,20.372-.055h.409a7.2,7.2,0,0,1,0,14.4Z" transform="matrix(1, 0.017, -0.017, 1, 680.957, 1564.369)" fill="#fff" opacity="0.53"/>
    <path id="Union_31" data-name="Union 31" d="M9.495,32.246A9.494,9.494,0,0,1,0,22.752q0-.427.037-.844Q0,21.528,0,21.139a7.883,7.883,0,0,1,6.808-7.81,13.436,13.436,0,0,1,26.871-.073h.538a9.495,9.495,0,0,1,0,18.989Z" transform="matrix(1, 0.017, -0.017, 1, 755.129, 1585.213)" fill="#fff"/>
    <path id="Union_35" data-name="Union 35" d="M7.57,25.708A7.569,7.569,0,0,1,0,18.139q0-.34.03-.673Q0,17.163,0,16.853a6.285,6.285,0,0,1,5.427-6.226,10.711,10.711,0,0,1,21.421-.058h.429a7.569,7.569,0,1,1,0,15.139Z" transform="matrix(1, 0.017, -0.017, 1, 826.028, 1538.081)" fill="#fff"/>
  </g>
</svg>
