<?xml version="1.0" standalone="no"?>
<!DOCTYPE svg PUBLIC "-//W3C//DTD SVG 20010904//EN"
 "http://www.w3.org/TR/2001/REC-SVG-20010904/DTD/svg10.dtd">
<svg version="1.0" xmlns="http://www.w3.org/2000/svg"
 width="250.000000pt" height="188.000000pt" viewBox="0 0 250.000000 188.000000"
 preserveAspectRatio="xMidYMid meet">
<metadata>
Created by potrace 1.16, written by Peter Selinger 2001-2019
</metadata>
<g transform="translate(0.000000,188.000000) scale(0.100000,-0.100000)"
fill="#000000" stroke="none">
<path d="M430 1708 c1 -23 8 -38 25 -51 23 -17 27 -17 74 -1 67 21 137 6 186
-41 43 -40 45 -72 11 -140 l-25 -48 50 -60 c58 -70 104 -145 95 -155 -10 -10
-90 35 -122 69 l-29 30 30 -11 c16 -6 35 -16 42 -22 10 -8 13 -7 13 4 0 45
-335 378 -380 378 -6 0 -2 -12 10 -30 15 -21 27 -29 39 -25 13 4 46 -23 120
-101 115 -119 114 -114 26 -165 -91 -52 -144 -36 -186 54 -23 51 -24 96 -4
143 10 23 12 42 6 53 -15 27 -49 53 -60 46 -6 -3 -11 -1 -11 5 0 6 -5 8 -10 5
-6 -4 -9 -12 -8 -18 2 -7 -15 -33 -36 -59 -40 -47 -85 -138 -86 -170 0 -12 -8
-18 -25 -18 -14 0 -25 -4 -25 -10 0 -5 11 -10 25 -10 34 0 32 -20 -2 -21 l-28
-1 25 -7 c37 -9 39 -48 2 -54 l-27 -4 27 -2 c19 -1 26 -5 22 -15 -3 -8 -13
-12 -25 -9 -10 3 -19 0 -19 -6 0 -6 11 -11 25 -11 18 0 25 -5 25 -20 0 -15 -7
-20 -25 -20 -14 0 -25 -5 -25 -11 0 -6 12 -9 27 -7 20 2 29 -2 31 -14 2 -12
-5 -18 -30 -21 l-33 -4 38 -1 c25 -1 37 -7 37 -16 0 -8 13 -54 29 -103 27 -79
71 -234 71 -248 0 -3 -15 -5 -33 -5 -29 0 -35 5 -56 49 -12 27 -21 62 -20 77
3 29 -6 54 -20 54 -4 0 -6 -13 -3 -29 3 -20 -3 -39 -18 -59 -26 -36 -24 -91 6
-136 10 -17 17 -45 17 -72 0 -24 2 -44 6 -44 17 0 31 27 31 61 0 66 15 89 55
89 35 0 51 -19 18 -21 -15 0 -15 -2 2 -9 18 -8 18 -9 -5 -10 l-25 -2 25 -8 25
-7 -30 -5 -30 -5 29 -2 c25 -1 46 15 131 99 56 55 106 100 111 100 5 0 14 11
20 25 9 19 9 27 -2 36 -23 19 -16 34 44 91 97 93 123 103 285 104 l138 2 139
136 c123 121 164 157 145 126 -3 -5 1 -10 10 -10 12 0 15 6 10 19 -3 11 -1 22
5 26 6 4 10 -6 10 -25 0 -20 4 -29 11 -25 6 4 9 19 8 33 -4 31 5 48 30 61 15
9 16 5 11 -45 -6 -57 0 -65 34 -39 16 12 19 26 17 75 -2 71 16 82 22 13 l4
-48 0 51 c0 27 2 55 6 60 3 6 2 16 -4 24 -7 12 -9 11 -10 -5 0 -11 -3 -15 -5
-9 -3 6 0 22 5 35 7 18 10 19 10 6 1 -21 30 -16 109 19 50 22 63 36 42 49 -5
3 -10 22 -10 41 l0 34 -50 0 c-39 0 -50 -3 -50 -16 0 -9 -6 -14 -12 -11 -7 2
-12 10 -11 16 5 18 -15 12 -20 -6 -4 -17 -5 -17 -6 0 -1 11 -9 17 -27 17 -23
0 -26 -3 -22 -25 7 -33 -9 -42 -57 -34 -30 5 -33 7 -12 8 33 1 37 21 3 21 -13
0 -29 7 -36 15 -18 22 -51 19 -57 -5 -4 -15 -14 -20 -39 -20 -32 0 -34 -2 -36
-37 l-1 -38 -4 35 c-6 65 -13 80 -33 80 -15 0 -20 -9 -23 -47 l-3 -48 -2 48
c-2 44 -4 47 -28 47 -24 0 -26 -3 -22 -35 2 -19 0 -35 -4 -35 -4 0 -8 16 -8
35 0 44 -17 46 -23 3 l-4 -33 -1 33 c-2 37 -22 44 -22 7 0 -14 -4 -25 -9 -25
-4 0 -6 11 -3 25 4 23 2 25 -38 25 -33 0 -41 -3 -36 -15 3 -9 0 -15 -9 -15 -8
0 -15 6 -15 14 0 11 -37 14 -200 15 -173 1 -200 0 -200 -14 0 -8 -4 -15 -10
-15 -5 0 -7 7 -4 15 5 11 -1 15 -25 15 -28 0 -31 -3 -31 -32z m737 -50 c-2
-13 -4 -3 -4 22 0 25 2 35 4 23 2 -13 2 -33 0 -45z m53 2 c0 -16 -4 -30 -10
-30 -5 0 -10 14 -10 30 0 17 5 30 10 30 6 0 10 -13 10 -30z m100 -26 c0 -19
-4 -34 -10 -34 -5 0 -10 18 -10 41 0 24 4 38 10 34 6 -3 10 -22 10 -41z m-78
11 c3 -14 1 -25 -3 -25 -5 0 -9 11 -9 25 0 14 2 25 4 25 2 0 6 -11 8 -25z
m185 -15 c3 -17 10 -33 14 -36 12 -7 11 -34 -1 -34 -5 0 -10 9 -10 20 0 11 -4
20 -10 20 -5 0 -7 -7 -4 -15 4 -8 1 -15 -6 -15 -6 0 -10 10 -8 23 2 15 -4 25
-19 32 -38 16 -37 35 3 35 30 0 35 -4 41 -30z m-90 -27 c-3 -10 -5 -4 -5 12 0
17 2 24 5 18 2 -7 2 -21 0 -30z m30 -15 c-3 -7 -5 -2 -5 12 0 14 2 19 5 13 2
-7 2 -19 0 -25z m-437 -44 c0 -14 -21 -19 -33 -7 -9 9 13 34 24 27 5 -3 9 -12
9 -20z m510 -83 c0 -28 -4 -53 -10 -56 -6 -4 -10 15 -10 49 0 31 5 56 10 56 6
0 10 -22 10 -49z m-380 3 c0 -8 5 -14 10 -14 6 0 3 -12 -7 -26 -12 -19 -18
-23 -22 -13 -2 8 -11 19 -19 25 -13 9 -13 12 2 17 9 4 16 14 16 22 0 9 5 13
10 10 6 -3 10 -13 10 -21z m-760 -164 c0 -5 -4 -10 -10 -10 -5 0 -10 5 -10 10
0 6 5 10 10 10 6 0 10 -4 10 -10z m243 -185 c1 -5 -6 -11 -15 -13 -11 -2 -18
3 -18 13 0 17 30 18 33 0z m-125 -89 c4 -21 -14 -37 -35 -29 -14 5 -18 35 -6
47 12 12 38 1 41 -18z"/>
<path d="M1870 1699 c0 -31 -8 -51 -30 -79 -16 -21 -30 -42 -30 -47 0 -5 -9
-9 -21 -10 -16 -2 -19 2 -14 15 13 33 17 72 9 72 -5 0 -23 -20 -41 -43 -17
-23 -57 -70 -88 -104 l-56 -62 38 -34 37 -34 -18 -29 c-10 -16 -48 -68 -83
-115 l-65 -86 -46 49 -46 50 -18 -22 -18 -22 -31 26 c-33 28 -59 32 -92 14
-54 -28 -63 -89 -20 -132 l27 -27 -20 -20 -20 -20 47 -48 47 -48 -212 -216
c-206 -211 -213 -216 -275 -236 -51 -17 -67 -18 -74 -8 -7 9 -10 9 -14 -3 -3
-8 -75 -85 -159 -170 -105 -107 -154 -163 -154 -178 0 -24 34 -32 43 -9 4 10
6 10 6 0 1 -7 6 -13 12 -13 5 0 7 4 4 10 -3 5 -2 10 4 10 5 0 12 -6 14 -12 4
-10 6 -10 6 0 1 16 48 16 54 0 4 -9 6 -8 6 2 1 13 2 13 11 0 9 -13 10 -13 10
0 0 20 332 350 351 350 19 0 69 -51 69 -71 0 -8 -45 -59 -100 -114 -95 -95
-100 -102 -99 -140 l2 -40 7 40 7 40 2 -37 c1 -27 6 -38 16 -38 11 0 15 11 15
40 0 29 4 40 15 40 11 0 15 -11 15 -40 0 -30 4 -40 16 -40 13 0 15 9 12 45 -2
25 0 45 4 45 5 0 8 -20 8 -45 0 -34 4 -45 16 -45 12 0 15 10 13 53 -3 45 -1
52 16 55 18 2 20 -2 17 -53 -4 -50 -2 -55 17 -55 19 0 21 6 21 65 0 56 3 65
18 64 10 0 12 -3 5 -6 -9 -3 -13 -26 -13 -64 l0 -59 55 0 55 0 0 33 0 32 49
-1 c60 -2 71 -8 71 -39 0 -23 0 -23 130 -24 98 -1 130 2 130 11 0 9 3 8 10 -2
15 -24 22 -5 21 59 0 34 1 61 2 61 2 0 18 -11 37 -25 19 -14 37 -25 40 -25 3
0 4 19 2 41 -3 29 -1 40 7 35 6 -4 11 -29 11 -56 0 -27 4 -51 8 -54 5 -3 7 17
4 44 -3 33 -1 50 7 50 7 0 11 -25 11 -70 0 -55 3 -70 15 -70 10 0 15 17 18 68
l3 67 2 -67 c2 -55 5 -68 18 -68 13 0 15 10 12 60 -1 33 0 60 5 60 4 0 7 -27
7 -60 0 -33 4 -60 10 -60 6 0 10 27 10 60 0 58 1 60 20 50 16 -8 20 -21 20
-60 l0 -50 34 0 c34 0 35 1 39 48 l3 47 2 -47 c3 -64 22 -61 22 3 0 66 24 62
28 -4 2 -26 8 -47 14 -47 6 0 9 18 6 45 -2 31 1 45 9 45 9 0 13 -16 13 -45 0
-41 2 -45 25 -45 22 0 24 4 28 58 l3 57 2 -57 c3 -80 20 -73 25 10 l3 67 2
-67 c2 -65 3 -68 27 -68 25 0 25 1 25 85 0 74 3 89 26 122 25 38 26 38 107 44
l82 5 -82 2 -82 2 10 30 c10 28 13 29 82 33 l72 3 -72 2 c-40 1 -73 6 -73 12
0 5 33 11 73 13 l72 3 -72 2 c-94 3 -96 22 -3 22 92 0 90 18 -2 23 l-73 3 73
2 c93 3 95 22 2 22 -38 0 -70 4 -70 9 0 5 -3 16 -6 25 -5 14 5 16 70 16 44 0
76 4 76 10 0 6 -31 10 -73 10 l-74 0 -11 39 c-21 67 -17 79 26 84 l37 4 -41 1
c-40 2 -42 4 -48 40 -9 56 -8 62 14 62 11 0 20 5 20 10 0 6 -9 10 -20 10 -31
0 -23 17 11 24 46 9 49 8 49 -17 0 -13 7 -32 15 -43 8 -10 15 -40 15 -66 l0
-47 -42 -4 -43 -4 48 -1 47 -2 0 45 c0 65 18 55 23 -12 l3 -58 2 64 c1 45 7
70 20 84 12 14 16 33 15 71 -4 101 -15 186 -24 186 -24 0 -49 -36 -49 -71 0
-57 -24 -96 -66 -104 -20 -3 -39 -4 -42 -1 -3 3 4 6 16 6 12 0 22 5 22 10 0 6
-8 10 -18 10 -15 0 -18 6 -14 30 4 26 9 30 36 31 31 2 31 2 3 6 -17 3 -27 9
-24 16 89 214 110 275 111 329 1 56 2 58 29 58 15 0 27 5 27 10 0 6 -12 10
-27 10 -23 1 -34 11 -60 57 -31 53 -33 61 -33 159 l0 104 -85 0 -85 0 0 -70
c0 -63 -2 -70 -20 -70 -18 0 -20 7 -22 73 l-2 72 -6 -75 -6 -75 -4 75 -4 75
-6 -75 -6 -75 -4 75 -4 75 -6 -75 -6 -75 -2 73 c-2 56 -5 72 -17 72 -12 0 -15
-15 -15 -75 0 -41 -3 -75 -7 -75 -5 0 -7 34 -5 75 3 63 1 75 -12 75 -13 0 -16
-14 -16 -80 0 -73 -2 -80 -20 -80 -15 0 -20 6 -19 28 l1 27 8 -25 c6 -17 8 -2
9 53 1 42 -1 77 -4 77 -3 0 -5 -18 -5 -41z m260 -229 c14 -9 26 -28 28 -41 7
-56 -107 -169 -169 -169 -31 0 -54 31 -64 89 -10 58 39 129 100 143 31 7 77
-2 105 -22z m-330 -130 c0 -5 -4 -10 -10 -10 -5 0 -10 5 -10 10 0 6 5 10 10
10 6 0 10 -4 10 -10z m-446 -146 c11 -28 6 -47 -16 -71 -22 -23 -43 -28 -72
-17 -23 9 -19 23 4 17 30 -8 73 34 65 64 -6 26 10 32 19 7z m373 -37 c-14 -19
-76 -89 -138 -156 -111 -120 -141 -140 -147 -95 -2 15 23 45 95 111 132 122
206 184 211 178 3 -2 -7 -20 -21 -38z m-247 -40 c0 -2 -17 -19 -37 -38 l-38
-34 34 38 c33 34 41 42 41 34z m558 -40 c2 -12 -3 -17 -17 -17 -15 0 -21 6
-21 21 0 25 33 22 38 -4z m269 -74 c-3 -10 -5 -2 -5 17 0 19 2 27 5 18 2 -10
2 -26 0 -35z m-447 -23 c0 -17 7 -33 18 -40 16 -10 16 -10 0 -20 -10 -6 -18
-20 -18 -30 0 -32 -20 -33 -26 -1 -4 17 -13 31 -20 31 -18 0 -18 16 0 23 7 3
17 22 20 41 8 42 26 39 26 -4z m-257 -43 c-91 -117 -173 -186 -173 -147 0 9
176 170 186 170 3 0 -3 -10 -13 -23z m447 -107 c0 -5 -4 -10 -10 -10 -5 0 -10
5 -10 10 0 6 5 10 10 10 6 0 10 -4 10 -10z m-360 -10 c0 -5 -7 -10 -15 -10 -8
0 -15 5 -15 10 0 6 7 10 15 10 8 0 15 -4 15 -10z m-420 -84 c0 -68 -15 -148
-37 -194 -9 -20 -43 -63 -74 -96 l-58 -61 -63 62 -63 63 140 140 c77 77 143
140 147 140 5 0 8 -24 8 -54z m718 -2 c50 -20 102 -72 102 -102 0 -31 -38
-121 -64 -150 l-20 -22 39 -40 c37 -38 38 -41 22 -57 -16 -17 -19 -16 -50 17
l-32 35 33 -30 c25 -22 35 -26 44 -17 9 9 4 20 -22 47 l-33 35 -41 -34 c-65
-53 -135 -84 -176 -79 -130 19 -164 245 -52 351 63 59 172 79 250 46z m-410
-54 c12 -12 22 -24 22 -29 0 -19 -61 -90 -95 -111 l-36 -22 -25 23 c-35 32
-33 93 3 131 34 35 97 39 131 8z m29 -87 c-3 -10 -5 -4 -5 12 0 17 2 24 5 18
2 -7 2 -21 0 -30z m507 12 c3 -8 1 -15 -4 -15 -6 0 -10 7 -10 15 0 8 2 15 4
15 2 0 6 -7 10 -15z m-529 -65 c-10 -11 -22 -20 -26 -20 -5 0 2 10 14 23 27
28 38 25 12 -3z m-58 -26 c-3 -3 -12 -4 -19 -1 -8 3 -5 6 6 6 11 1 17 -2 13
-5z m587 -76 c-4 -5 -19 3 -35 18 -15 15 -26 31 -23 36 4 5 19 -3 35 -18 15
-15 26 -31 23 -36z m-706 4 c3 -16 -2 -22 -16 -22 -24 0 -35 23 -19 39 16 16
31 8 35 -17z m597 -131 c-7 -6 -65 50 -65 63 0 5 16 -5 35 -24 19 -18 32 -36
30 -39z m-122 -11 c12 0 16 4 11 13 -5 7 0 6 11 -3 17 -14 17 -15 -10 -18 -16
-2 -33 3 -41 12 -8 9 -9 11 -2 6 7 -6 20 -10 31 -10z m-473 1 c0 -5 3 -23 6
-40 5 -24 3 -31 -8 -31 -16 0 -33 54 -22 71 7 12 24 12 24 0z m50 -17 c0 -8
-4 -14 -10 -14 -5 0 -10 9 -10 21 0 11 5 17 10 14 6 -3 10 -13 10 -21z m-104
-14 c9 21 12 25 9 10 -2 -14 -5 -31 -5 -37 0 -20 -28 -15 -33 5 -4 13 -5 11
-6 -5 -1 -25 -21 -32 -21 -9 0 8 5 18 10 21 6 3 10 16 11 28 1 16 4 12 11 -13
l11 -35 13 35z m187 0 c-7 -28 -13 -25 -13 6 0 14 4 23 9 20 5 -3 7 -15 4 -26z
m-279 5 c-4 -8 -8 -15 -10 -15 -2 0 -4 7 -4 15 0 8 4 15 10 15 5 0 7 -7 4 -15z
m32 0 c-4 -24 -16 -30 -16 -7 0 12 4 22 9 22 5 0 8 -7 7 -15z m-59 -27 c-3 -7
-5 -2 -5 12 0 14 2 19 5 13 2 -7 2 -19 0 -25z m360 0 c-3 -7 -5 -2 -5 12 0 14
2 19 5 13 2 -7 2 -19 0 -25z m-444 5 c-7 -2 -19 -2 -25 0 -7 3 -2 5 12 5 14 0
19 -2 13 -5z m350 -13 c3 -11 1 -20 -4 -20 -5 0 -9 9 -9 20 0 11 2 20 4 20 2
0 6 -9 9 -20z m-237 -36 c-3 -9 -20 -14 -48 -14 l-43 0 45 29 c45 28 61 23 46
-15z"/>
<path d="M2060 1409 c0 -5 5 -7 10 -4 6 3 10 8 10 11 0 2 -4 4 -10 4 -5 0 -10
-5 -10 -11z"/>
<path d="M2020 1329 c0 -5 5 -7 10 -4 6 3 10 8 10 11 0 2 -4 4 -10 4 -5 0 -10
-5 -10 -11z"/>
<path d="M1165 590 c16 -16 33 -30 39 -30 5 0 -3 14 -19 30 -16 17 -33 30 -39
30 -5 0 3 -13 19 -30z"/>
<path d="M1120 594 c0 -6 14 -23 30 -39 17 -16 30 -24 30 -19 0 6 -13 23 -30
39 -16 16 -30 24 -30 19z"/>
<path d="M1073 549 c-12 -4 -24 -17 -28 -29 -9 -27 19 -70 45 -70 26 0 63 38
56 57 -3 8 -6 18 -6 22 0 15 -45 28 -67 20z"/>
<path d="M2080 465 c13 -14 26 -25 28 -25 3 0 -5 11 -18 25 -13 14 -26 25 -28
25 -3 0 5 -11 18 -25z"/>
<path d="M168 1513 c12 -2 32 -2 45 0 12 2 2 4 -23 4 -25 0 -35 -2 -22 -4z"/>
<path d="M2328 1383 c6 -2 18 -2 25 0 6 3 1 5 -13 5 -14 0 -19 -2 -12 -5z"/>
<path d="M2328 1343 c6 -2 18 -2 25 0 6 3 1 5 -13 5 -14 0 -19 -2 -12 -5z"/>
<path d="M2328 1313 c6 -2 18 -2 25 0 6 3 1 5 -13 5 -14 0 -19 -2 -12 -5z"/>
<path d="M885 1008 l-80 -83 83 80 c76 74 87 85 79 85 -1 0 -38 -37 -82 -82z"/>
<path d="M168 1063 c12 -2 30 -2 40 0 9 3 -1 5 -23 4 -22 0 -30 -2 -17 -4z"/>
<path d="M725 1040 c16 -16 31 -28 33 -25 7 7 -39 55 -52 55 -5 0 3 -13 19
-30z"/>
<path d="M680 1044 c0 -13 48 -59 55 -52 3 2 -9 17 -25 33 -17 16 -30 24 -30
19z"/>
<path d="M168 1033 c12 -2 32 -2 45 0 12 2 2 4 -23 4 -25 0 -35 -2 -22 -4z"/>
<path d="M1087 955 c59 -66 83 -86 83 -71 0 6 -140 146 -146 146 -3 0 25 -34
63 -75z"/>
<path d="M1162 977 l-22 -24 20 -18 c20 -18 21 -18 43 3 l21 22 -20 20 -20 20
-22 -23z"/>
<path d="M693 871 c-33 -33 -64 -57 -67 -54 -3 3 -8 -3 -12 -13 -4 -10 -87
-100 -185 -199 -139 -141 -178 -186 -181 -210 -3 -29 -4 -29 -50 -26 -30 1
-48 -2 -48 -8 0 -6 21 -11 50 -11 28 0 50 -4 50 -9 0 -5 5 -22 12 -38 6 -15
10 -32 9 -36 -4 -21 28 8 192 170 104 104 170 176 165 181 -12 12 26 139 49
164 13 15 14 20 3 33 -11 14 -6 23 35 65 68 69 53 62 -22 -9z"/>
<path d="M238 913 c6 -2 18 -2 25 0 6 3 1 5 -13 5 -14 0 -19 -2 -12 -5z"/>
<path d="M929 738 l-87 -90 20 -20 20 -20 91 90 c90 90 91 91 72 112 -10 11
-21 19 -24 19 -3 -1 -45 -42 -92 -91z"/>
<path d="M749 553 c-13 -16 -12 -17 4 -4 9 7 17 15 17 17 0 8 -8 3 -21 -13z"/>
<path d="M2257 553 c18 -2 50 -2 70 0 21 2 7 4 -32 4 -38 0 -55 -2 -38 -4z"/>
<path d="M983 160 c0 -30 2 -43 4 -28 2 16 2 40 0 56 -2 15 -4 2 -4 -28z"/>
<path d="M1810 160 c0 -27 5 -50 10 -50 6 0 10 23 10 50 0 28 -4 50 -10 50 -5
0 -10 -22 -10 -50z"/>
</g>
</svg>
